<?xml version="1.0" encoding="utf-8"?>
<!-- Generator: Adobe Illustrator 23.0.1, SVG Export Plug-In . SVG Version: 6.00 Build 0)  -->
<svg version="1.1" xmlns="http://www.w3.org/2000/svg" xmlns:xlink="http://www.w3.org/1999/xlink" x="0px" y="0px"
	 viewBox="0 0 24 20" style="enable-background:new 0 0 24 20;" xml:space="preserve">
<g id="Слой_1">
</g>
<g id="Layer">
	<path d="M9.3,19.7c0.4,0.4,1,0.4,1.4,0c0.4-0.4,0.4-1,0-1.4L3,11h20c0.6,0,1-0.4,1-1s-0.4-1-1-1H3.1l7.6-7.3c0.4-0.4,0.4-1,0-1.4
		C10.5,0.1,10.3,0,10,0C9.8,0,9.5,0.1,9.3,0.3L0.6,8.6C0.2,9,0,9.5,0,10c0,0.5,0.2,1,0.6,1.4L9.3,19.7z"/>
</g>
</svg>
