<?xml version="1.0" encoding="utf-8"?>
<!-- Generator: Adobe Illustrator 23.0.1, SVG Export Plug-In . SVG Version: 6.00 Build 0)  -->
<svg version="1.1" xmlns="http://www.w3.org/2000/svg" xmlns:xlink="http://www.w3.org/1999/xlink" x="0px" y="0px"
	 viewBox="0 0 24 20" style="enable-background:new 0 0 24 20;" xml:space="preserve">
<g id="Слой_1">
</g>
<g id="Layer">
	<path d="M14.7,0.3c-0.4-0.4-1-0.4-1.4,0c-0.4,0.4-0.4,1,0,1.4L21,9H1c-0.6,0-1,0.4-1,1s0.4,1,1,1h19.9l-7.6,7.3
		c-0.4,0.4-0.4,1,0,1.4c0.2,0.2,0.5,0.3,0.7,0.3c0.2,0,0.5-0.1,0.7-0.3l8.7-8.3C23.8,11,24,10.5,24,10s-0.2-1-0.6-1.4L14.7,0.3z"/>
</g>
</svg>
