<svg xmlns="http://www.w3.org/2000/svg" width="15" height="15" viewBox="0 0 15 15">
  <defs>
    <style>
      .cls-1 {
        fill-rule: evenodd;
      }
    </style>
  </defs>
  <path id="arrow" class="cls-1" d="M744.583,50h-9.166a0.417,0.417,0,0,0-.417.417V51.25a0.417,0.417,0,0,0,.417.416h6.738L730.122,63.7a0.417,0.417,0,0,0,0,.589l0.589,0.589a0.418,0.418,0,0,0,.59,0l12.032-12.033v6.738a0.417,0.417,0,0,0,.417.417h0.833A0.416,0.416,0,0,0,745,59.583V50.416A0.416,0.416,0,0,0,744.583,50Z" transform="translate(-730 -50)"/>
</svg>
