<svg xmlns="http://www.w3.org/2000/svg" width="18" height="19" viewBox="0 0 18 19">
  <defs>
    <style>
      .cls-1 {
        fill-rule: evenodd;
      }
    </style>
  </defs>
  <path id="Forma_1" data-name="Forma 1" class="cls-1" d="M722.748,407.909a0.8,0.8,0,0,0-1.129,0l-9.592,9.553a3.215,3.215,0,0,1-4.513,0,3.142,3.142,0,0,1,0-4.472l9.877-9.834a2.008,2.008,0,0,1,2.819,0,1.964,1.964,0,0,1,0,2.8l-8.182,8.1v0a0.8,0.8,0,0,1-1.127,0,0.785,0.785,0,0,1,0-1.118l3.949-3.913a0.785,0.785,0,0,0,0-1.118,0.8,0.8,0,0,0-1.128,0l-3.95,3.913a2.356,2.356,0,0,0,0,3.353,2.409,2.409,0,0,0,3.386,0l0,0,8.179-8.1a3.535,3.535,0,0,0,0-5.031,3.617,3.617,0,0,0-5.078,0l-9.877,9.835a4.712,4.712,0,0,0,0,6.706,4.823,4.823,0,0,0,6.772,0l9.594-9.555A0.786,0.786,0,0,0,722.748,407.909Z" transform="translate(-705 -401)"/>
</svg>
