<svg xmlns="http://www.w3.org/2000/svg" xmlns:xlink="http://www.w3.org/1999/xlink" width="26" height="26" viewBox="0 0 26 26">
  <path class="cls-1" d="M832,856a13,13,0,1,0,13,13A13.015,13.015,0,0,0,832,856Zm0,23.636A10.636,10.636,0,1,1,842.636,869,10.648,10.648,0,0,1,832,879.636Zm3.677-13.621-2.5,2.5v-6.6a1.182,1.182,0,1,0-2.363,0v6.6l-2.5-2.5a1.182,1.182,0,1,0-1.671,1.672l4.512,4.512a1.182,1.182,0,0,0,1.671,0l4.513-4.512A1.182,1.182,0,1,0,835.677,866.015Zm-1.313,8.894h-4.728a1.182,1.182,0,0,0,0,2.364h4.728A1.182,1.182,0,0,0,834.364,874.909Z" transform="translate(-819 -856)"/>
</svg>
