<svg xmlns="http://www.w3.org/2000/svg" width="16" height="16" viewBox="0 0 16 16">
  <defs>
    <style>
      .cls-1 {
        fill-rule: evenodd;
      }
    </style>
  </defs>
  <path class="cls-1" d="M1536.49,501.878a0.192,0.192,0,0,0,.05.048,0.037,0.037,0,0,1,.02.019c0.01,0.008.03,0.016,0.04,0.023l0.03,0.019,0.03,0.018,0.03,0.016,0.03,0.014,0.03,0.012a0.294,0.294,0,0,1,.04.012l0.03,0.009,0.04,0.009a0.235,0.235,0,0,0,.04,0l0.03,0c0.02,0,.05,0,0.07,0s0.05,0,.07,0l0.03,0a0.235,0.235,0,0,0,.04,0l0.04-.009,0.03-.009a0.294,0.294,0,0,1,.04-0.012l0.03-.012a0.21,0.21,0,0,0,.03-0.015l0.03-.015,0.03-.018,0.03-.019,0.03-.023,0.03-.019a0.205,0.205,0,0,0,.05-0.046v0l3.4-3.394a0.728,0.728,0,0,0-1.03-1.029l-2.15,2.153v-9.881a0.73,0.73,0,0,0-1.46,0v9.881l-2.15-2.153a0.728,0.728,0,0,0-1.03,1.029Zm7.78,1.667h-14.54a0.728,0.728,0,1,0,0,1.455h14.54A0.728,0.728,0,1,0,1544.27,503.545Z" transform="translate(-1529 -489)"/>
</svg>
