<?xml version="1.0" encoding="utf-8"?>
<!-- Generator: Adobe Illustrator 23.0.1, SVG Export Plug-In . SVG Version: 6.00 Build 0)  -->
<svg version="1.1" xmlns="http://www.w3.org/2000/svg" xmlns:xlink="http://www.w3.org/1999/xlink" x="0px" y="0px"
	 viewBox="0 0 22 19" style="enable-background:new 0 0 22 19;" xml:space="preserve">
<g id="Слой_1">
</g>
<g id="Capa_1">
	<g>
		<g id="_x36__30_">
			<g>
				<path d="M11.9,13.7c-0.3,0.3-0.3,0.7,0,1c0.3,0.3,0.7,0.3,1,0l4.7-4.7c0.1-0.1,0.2-0.3,0.2-0.5c0-0.2-0.1-0.4-0.2-0.5l-4.7-4.7
					c-0.3-0.3-0.7-0.3-1,0c-0.3,0.3-0.3,0.7,0,1l3.6,3.6H0.8c-0.4,0-0.7,0.3-0.7,0.7s0.3,0.7,0.7,0.7h14.6L11.9,13.7z M19.1,0H5.6
					C4.1,0,2.9,1.2,2.9,2.7v2.7h1.4V2.7c0-0.7,0.6-1.4,1.4-1.4h13.6c0.7,0,1.4,0.6,1.4,1.4v13.6c0,0.7-0.6,1.4-1.4,1.4H5.6
					c-0.7,0-1.4-0.6-1.4-1.4v-2.7H2.9v2.7c0,1.5,1.2,2.7,2.7,2.7h13.6c1.5,0,2.7-1.2,2.7-2.7V2.7C21.9,1.2,20.6,0,19.1,0z"/>
			</g>
		</g>
	</g>
</g>
</svg>
