<?xml version="1.0" encoding="utf-8"?>
<!-- Generator: Adobe Illustrator 23.0.5, SVG Export Plug-In . SVG Version: 6.00 Build 0)  -->
<svg version="1.1" id="Слой_1" xmlns="http://www.w3.org/2000/svg" xmlns:xlink="http://www.w3.org/1999/xlink" x="0px" y="0px"
	 viewBox="0 0 60 60" style="enable-background:new 0 0 60 60;" xml:space="preserve">
<path d="M48.1,37.1l-8.7-1.9c-0.4-0.1-0.8,0-1.1,0.3l-3.2,3.2c-6-3-10.8-7.9-13.9-13.9l3.2-3.2c0.3-0.3,0.4-0.7,0.3-1.1l-1.9-8.7
	c-0.1-0.5-0.6-0.9-1.2-0.9c-1.8,0-3.5,0.4-5.1,1.3c-1.5,0.8-2.7,1.9-3.7,3.3c-1,1.4-1.6,3-1.8,4.6c-0.3,1.7-0.1,3.5,0.5,5.2
	c1.9,5.2,5,10.1,9,14.1c4,4,8.8,7.1,14.1,9c1.2,0.4,2.4,0.6,3.6,0.6c0.5,0,1,0,1.5-0.1c1.6-0.2,3.2-0.9,4.6-1.8
	c1.4-1,2.5-2.2,3.3-3.7c0.8-1.6,1.3-3.3,1.3-5.1C49,37.7,48.6,37.2,48.1,37.1z M42.1,44.8c-2.2,1.5-4.8,1.9-7.3,1
	C25.1,42.3,17.5,34.7,14,25c-0.9-2.5-0.5-5.1,1-7.3c1.3-1.9,3.4-3.1,5.7-3.4l1.5,6.8l-3.2,3.2c-0.3,0.3-0.4,0.9-0.2,1.3
	c3.2,6.8,8.7,12.3,15.5,15.5c0.4,0.2,1,0.1,1.3-0.2l3.2-3.2l6.8,1.5C45.2,41.5,44,43.5,42.1,44.8z"/>
<path d="M30,0C13.4,0,0,13.4,0,30s13.4,30,30,30s30-13.4,30-30S46.6,0,30,0z M30,57C15.1,57,3,44.9,3,30C3,15.1,15.1,3,30,3
	s27,12.1,27,27C57,44.9,44.9,57,30,57z"/>
</svg>
