<?xml version="1.0" encoding="utf-8"?>
<!-- Generator: Adobe Illustrator 23.0.5, SVG Export Plug-In . SVG Version: 6.00 Build 0)  -->
<svg version="1.1" id="Слой_1" xmlns="http://www.w3.org/2000/svg" xmlns:xlink="http://www.w3.org/1999/xlink" x="0px" y="0px"
	 viewBox="0 0 20 14" style="enable-background:new 0 0 20 14;" xml:space="preserve">
<g>
	<g>
		<path d="M19.9,6.6C19.7,6.3,15.4,0,10,0S0.3,6.3,0.1,6.6C0,6.8,0,7.2,0.1,7.4C0.3,7.7,4.6,14,10,14s9.7-6.3,9.9-6.6
			C20,7.2,20,6.8,19.9,6.6z M10,12.6c-4,0-7.5-4.2-8.5-5.6C2.5,5.6,6,1.4,10,1.4c4,0,7.5,4.2,8.5,5.6C17.5,8.4,14,12.6,10,12.6z"/>
	</g>
</g>
<g>
	<g>
		<path d="M10,2.7C7.8,2.7,6,4.6,6,7s1.8,4.3,4,4.3s4-1.9,4-4.3S12.2,2.7,10,2.7z M10,9.9C8.5,9.9,7.4,8.6,7.4,7S8.5,4.1,10,4.1
			s2.6,1.3,2.6,2.9S11.5,9.9,10,9.9z"/>
	</g>
</g>
</svg>
